<mxfile host="app.diagrams.net" modified="2023-12-21T13:50:49.015Z" agent="Mozilla/5.0 (Windows NT 10.0; Win64; x64) AppleWebKit/537.36 (KHTML, like Gecko) Chrome/120.0.0.0 Safari/537.36" etag="pFcxaeuMkY5vh65zph-M" version="22.1.11" type="github">
  <diagram id="C5RBs43oDa-KdzZeNtuy" name="Page-1">
    <mxGraphModel dx="1134" dy="1806" grid="1" gridSize="10" guides="1" tooltips="1" connect="1" arrows="1" fold="1" page="1" pageScale="1" pageWidth="827" pageHeight="1169" math="0" shadow="0">
      <root>
        <mxCell id="WIyWlLk6GJQsqaUBKTNV-0" />
        <mxCell id="WIyWlLk6GJQsqaUBKTNV-1" parent="WIyWlLk6GJQsqaUBKTNV-0" />
        <mxCell id="oP3Ork68nBSGmn3EAQ2I-6" value="Personne" style="swimlane;fontStyle=1;align=center;verticalAlign=top;childLayout=stackLayout;horizontal=1;startSize=26;horizontalStack=0;resizeParent=1;resizeParentMax=0;resizeLast=0;collapsible=1;marginBottom=0;whiteSpace=wrap;html=1;" vertex="1" parent="WIyWlLk6GJQsqaUBKTNV-1">
          <mxGeometry x="290" y="20" width="160" height="318" as="geometry" />
        </mxCell>
        <mxCell id="oP3Ork68nBSGmn3EAQ2I-7" value="id : int&lt;br style=&quot;border-color: var(--border-color);&quot;&gt;nom : string&lt;br style=&quot;border-color: var(--border-color);&quot;&gt;prenom : string&lt;br style=&quot;border-color: var(--border-color);&quot;&gt;adresse : string&lt;br style=&quot;border-color: var(--border-color);&quot;&gt;societe_employeurs: Liste[Societe]&lt;br style=&quot;border-color: var(--border-color);&quot;&gt;voitures_possedees: Liste[voiture]" style="text;strokeColor=none;fillColor=none;align=left;verticalAlign=top;spacingLeft=4;spacingRight=4;overflow=hidden;rotatable=0;points=[[0,0.5],[1,0.5]];portConstraint=eastwest;whiteSpace=wrap;html=1;" vertex="1" parent="oP3Ork68nBSGmn3EAQ2I-6">
          <mxGeometry y="26" width="160" height="154" as="geometry" />
        </mxCell>
        <mxCell id="oP3Ork68nBSGmn3EAQ2I-8" value="" style="line;strokeWidth=1;fillColor=none;align=left;verticalAlign=middle;spacingTop=-1;spacingLeft=3;spacingRight=3;rotatable=0;labelPosition=right;points=[];portConstraint=eastwest;strokeColor=inherit;" vertex="1" parent="oP3Ork68nBSGmn3EAQ2I-6">
          <mxGeometry y="180" width="160" height="8" as="geometry" />
        </mxCell>
        <mxCell id="oP3Ork68nBSGmn3EAQ2I-9" value="&lt;div&gt;+ ajouterSociete(societe: Societe): void&amp;nbsp;&lt;/div&gt;&lt;div&gt;+ ajouterVoiture(voiture: Voiture): void&amp;nbsp;&amp;nbsp;&lt;/div&gt;&lt;div&gt;+ getNomPersonne(): String&lt;/div&gt;&lt;div&gt;+ getDateNaissance(): Date&lt;/div&gt;&lt;div&gt;+ getAdressePersonne(): String&lt;/div&gt;" style="text;strokeColor=none;fillColor=none;align=left;verticalAlign=top;spacingLeft=4;spacingRight=4;overflow=hidden;rotatable=0;points=[[0,0.5],[1,0.5]];portConstraint=eastwest;whiteSpace=wrap;html=1;" vertex="1" parent="oP3Ork68nBSGmn3EAQ2I-6">
          <mxGeometry y="188" width="160" height="130" as="geometry" />
        </mxCell>
        <mxCell id="oP3Ork68nBSGmn3EAQ2I-10" value="Societe" style="swimlane;fontStyle=1;align=center;verticalAlign=top;childLayout=stackLayout;horizontal=1;startSize=26;horizontalStack=0;resizeParent=1;resizeParentMax=0;resizeLast=0;collapsible=1;marginBottom=0;whiteSpace=wrap;html=1;" vertex="1" parent="WIyWlLk6GJQsqaUBKTNV-1">
          <mxGeometry x="60" y="140" width="160" height="210" as="geometry" />
        </mxCell>
        <mxCell id="oP3Ork68nBSGmn3EAQ2I-11" value="&lt;div&gt;- nom_societe: String&lt;/div&gt;&lt;div&gt;- employeurs: Liste[Personne]&lt;/div&gt;&lt;div&gt;- voitures_possedees: Liste[Voiture]&lt;/div&gt;" style="text;strokeColor=none;fillColor=none;align=left;verticalAlign=top;spacingLeft=4;spacingRight=4;overflow=hidden;rotatable=0;points=[[0,0.5],[1,0.5]];portConstraint=eastwest;whiteSpace=wrap;html=1;" vertex="1" parent="oP3Ork68nBSGmn3EAQ2I-10">
          <mxGeometry y="26" width="160" height="84" as="geometry" />
        </mxCell>
        <mxCell id="oP3Ork68nBSGmn3EAQ2I-12" value="" style="line;strokeWidth=1;fillColor=none;align=left;verticalAlign=middle;spacingTop=-1;spacingLeft=3;spacingRight=3;rotatable=0;labelPosition=right;points=[];portConstraint=eastwest;strokeColor=inherit;" vertex="1" parent="oP3Ork68nBSGmn3EAQ2I-10">
          <mxGeometry y="110" width="160" height="8" as="geometry" />
        </mxCell>
        <mxCell id="oP3Ork68nBSGmn3EAQ2I-13" value="&lt;div&gt;+ getNomSociete(): String&lt;/div&gt;&lt;div&gt;+ getEmployeurs(): Liste[Personne]&lt;/div&gt;&lt;div&gt;+ getVoituresPossedees(): Liste[Voiture]&lt;/div&gt;" style="text;strokeColor=none;fillColor=none;align=left;verticalAlign=top;spacingLeft=4;spacingRight=4;overflow=hidden;rotatable=0;points=[[0,0.5],[1,0.5]];portConstraint=eastwest;whiteSpace=wrap;html=1;" vertex="1" parent="oP3Ork68nBSGmn3EAQ2I-10">
          <mxGeometry y="118" width="160" height="92" as="geometry" />
        </mxCell>
        <mxCell id="oP3Ork68nBSGmn3EAQ2I-14" value="Pret" style="swimlane;fontStyle=1;align=center;verticalAlign=top;childLayout=stackLayout;horizontal=1;startSize=26;horizontalStack=0;resizeParent=1;resizeParentMax=0;resizeLast=0;collapsible=1;marginBottom=0;whiteSpace=wrap;html=1;" vertex="1" parent="WIyWlLk6GJQsqaUBKTNV-1">
          <mxGeometry x="70" y="-160" width="160" height="140" as="geometry" />
        </mxCell>
        <mxCell id="oP3Ork68nBSGmn3EAQ2I-15" value="+ tauxInteret : double&lt;br&gt;+soldePret : double" style="text;strokeColor=none;fillColor=none;align=left;verticalAlign=top;spacingLeft=4;spacingRight=4;overflow=hidden;rotatable=0;points=[[0,0.5],[1,0.5]];portConstraint=eastwest;whiteSpace=wrap;html=1;" vertex="1" parent="oP3Ork68nBSGmn3EAQ2I-14">
          <mxGeometry y="26" width="160" height="54" as="geometry" />
        </mxCell>
        <mxCell id="oP3Ork68nBSGmn3EAQ2I-16" value="" style="line;strokeWidth=1;fillColor=none;align=left;verticalAlign=middle;spacingTop=-1;spacingLeft=3;spacingRight=3;rotatable=0;labelPosition=right;points=[];portConstraint=eastwest;strokeColor=inherit;" vertex="1" parent="oP3Ork68nBSGmn3EAQ2I-14">
          <mxGeometry y="80" width="160" height="8" as="geometry" />
        </mxCell>
        <mxCell id="oP3Ork68nBSGmn3EAQ2I-17" value="getTauxInteret() : double&lt;br&gt;getSoldePret() : double" style="text;strokeColor=none;fillColor=none;align=left;verticalAlign=top;spacingLeft=4;spacingRight=4;overflow=hidden;rotatable=0;points=[[0,0.5],[1,0.5]];portConstraint=eastwest;whiteSpace=wrap;html=1;" vertex="1" parent="oP3Ork68nBSGmn3EAQ2I-14">
          <mxGeometry y="88" width="160" height="52" as="geometry" />
        </mxCell>
        <mxCell id="oP3Ork68nBSGmn3EAQ2I-18" value="Banque" style="swimlane;fontStyle=1;align=center;verticalAlign=top;childLayout=stackLayout;horizontal=1;startSize=20;horizontalStack=0;resizeParent=1;resizeParentMax=0;resizeLast=0;collapsible=1;marginBottom=0;whiteSpace=wrap;html=1;" vertex="1" parent="WIyWlLk6GJQsqaUBKTNV-1">
          <mxGeometry x="530" y="30" width="160" height="200" as="geometry" />
        </mxCell>
        <mxCell id="oP3Ork68nBSGmn3EAQ2I-19" value="nom_banque : string&lt;br&gt;prets : Liste[prets]" style="text;strokeColor=none;fillColor=none;align=left;verticalAlign=top;spacingLeft=4;spacingRight=4;overflow=hidden;rotatable=0;points=[[0,0.5],[1,0.5]];portConstraint=eastwest;whiteSpace=wrap;html=1;" vertex="1" parent="oP3Ork68nBSGmn3EAQ2I-18">
          <mxGeometry y="20" width="160" height="70" as="geometry" />
        </mxCell>
        <mxCell id="oP3Ork68nBSGmn3EAQ2I-20" value="" style="line;strokeWidth=1;fillColor=none;align=left;verticalAlign=middle;spacingTop=-1;spacingLeft=3;spacingRight=3;rotatable=0;labelPosition=right;points=[];portConstraint=eastwest;strokeColor=inherit;" vertex="1" parent="oP3Ork68nBSGmn3EAQ2I-18">
          <mxGeometry y="90" width="160" height="8" as="geometry" />
        </mxCell>
        <mxCell id="oP3Ork68nBSGmn3EAQ2I-21" value="+ getNomBanque : string&lt;br&gt;+accorderPret (voiture: Voiture, taux : float) : void&lt;br&gt;+retirerPret(voiture: Voiture): void" style="text;strokeColor=none;fillColor=none;align=left;verticalAlign=top;spacingLeft=4;spacingRight=4;overflow=hidden;rotatable=0;points=[[0,0.5],[1,0.5]];portConstraint=eastwest;whiteSpace=wrap;html=1;" vertex="1" parent="oP3Ork68nBSGmn3EAQ2I-18">
          <mxGeometry y="98" width="160" height="102" as="geometry" />
        </mxCell>
        <mxCell id="oP3Ork68nBSGmn3EAQ2I-22" value="Voiture" style="swimlane;fontStyle=1;align=center;verticalAlign=top;childLayout=stackLayout;horizontal=1;startSize=26;horizontalStack=0;resizeParent=1;resizeParentMax=0;resizeLast=0;collapsible=1;marginBottom=0;whiteSpace=wrap;html=1;" vertex="1" parent="WIyWlLk6GJQsqaUBKTNV-1">
          <mxGeometry x="300" y="370" width="230" height="350" as="geometry" />
        </mxCell>
        <mxCell id="oP3Ork68nBSGmn3EAQ2I-23" value="&lt;div&gt;- numero_vehicule: String&lt;/div&gt;&lt;div&gt;- modele_vehicule: String&lt;/div&gt;&lt;div&gt;- annee_vehicule: int&lt;/div&gt;&lt;div&gt;- proprietaire: Personne or Societe or&lt;/div&gt;&lt;div&gt;&amp;nbsp; Banque&lt;/div&gt;&lt;div&gt;- banque_pret: Banque&lt;/div&gt;" style="text;strokeColor=none;fillColor=none;align=left;verticalAlign=top;spacingLeft=4;spacingRight=4;overflow=hidden;rotatable=0;points=[[0,0.5],[1,0.5]];portConstraint=eastwest;whiteSpace=wrap;html=1;" vertex="1" parent="oP3Ork68nBSGmn3EAQ2I-22">
          <mxGeometry y="26" width="230" height="124" as="geometry" />
        </mxCell>
        <mxCell id="oP3Ork68nBSGmn3EAQ2I-24" value="" style="line;strokeWidth=1;fillColor=none;align=left;verticalAlign=middle;spacingTop=-1;spacingLeft=3;spacingRight=3;rotatable=0;labelPosition=right;points=[];portConstraint=eastwest;strokeColor=inherit;" vertex="1" parent="oP3Ork68nBSGmn3EAQ2I-22">
          <mxGeometry y="150" width="230" height="8" as="geometry" />
        </mxCell>
        <mxCell id="oP3Ork68nBSGmn3EAQ2I-25" value="&lt;div&gt;+ getNumeroVehicule(): String&lt;/div&gt;&lt;div&gt;+ getModeleVehicule(): String&lt;/div&gt;&lt;div&gt;+ getAnneeVehicule(): int&lt;/div&gt;&lt;div&gt;+ getProprietaire(): Proprietaire&lt;/div&gt;&lt;div&gt;+setProprietaire(nouveau_proprietaire:&lt;/div&gt;&lt;div&gt;Proprietaire): void&lt;/div&gt;&lt;div&gt;+ getBanquePret(): Banque&lt;/div&gt;&lt;div&gt;+setBanquePret(nouvelle_banque: Banque):&lt;/div&gt;&lt;div&gt;&amp;nbsp; void&amp;nbsp;&lt;/div&gt;" style="text;strokeColor=none;fillColor=none;align=left;verticalAlign=top;spacingLeft=4;spacingRight=4;overflow=hidden;rotatable=0;points=[[0,0.5],[1,0.5]];portConstraint=eastwest;whiteSpace=wrap;html=1;" vertex="1" parent="oP3Ork68nBSGmn3EAQ2I-22">
          <mxGeometry y="158" width="230" height="192" as="geometry" />
        </mxCell>
        <mxCell id="oP3Ork68nBSGmn3EAQ2I-32" style="edgeStyle=none;rounded=0;orthogonalLoop=1;jettySize=auto;html=1;exitX=0.5;exitY=0;exitDx=0;exitDy=0;entryX=0.75;entryY=0;entryDx=0;entryDy=0;" edge="1" parent="WIyWlLk6GJQsqaUBKTNV-1" source="oP3Ork68nBSGmn3EAQ2I-14" target="oP3Ork68nBSGmn3EAQ2I-14">
          <mxGeometry relative="1" as="geometry" />
        </mxCell>
        <mxCell id="oP3Ork68nBSGmn3EAQ2I-38" value="name" style="endArrow=block;endFill=1;html=1;edgeStyle=orthogonalEdgeStyle;align=left;verticalAlign=top;rounded=0;entryX=1;entryY=0.5;entryDx=0;entryDy=0;exitX=1.032;exitY=0.827;exitDx=0;exitDy=0;exitPerimeter=0;" edge="1" parent="WIyWlLk6GJQsqaUBKTNV-1" source="oP3Ork68nBSGmn3EAQ2I-15" target="oP3Ork68nBSGmn3EAQ2I-23">
          <mxGeometry x="-1" relative="1" as="geometry">
            <mxPoint x="450" y="-100" as="sourcePoint" />
            <mxPoint x="780" y="450" as="targetPoint" />
            <Array as="points">
              <mxPoint x="780" y="-99" />
              <mxPoint x="780" y="458" />
            </Array>
          </mxGeometry>
        </mxCell>
        <mxCell id="oP3Ork68nBSGmn3EAQ2I-39" value="1" style="edgeLabel;resizable=0;html=1;align=left;verticalAlign=bottom;" connectable="0" vertex="1" parent="oP3Ork68nBSGmn3EAQ2I-38">
          <mxGeometry x="-1" relative="1" as="geometry" />
        </mxCell>
        <mxCell id="oP3Ork68nBSGmn3EAQ2I-40" value="name" style="endArrow=block;endFill=1;html=1;edgeStyle=orthogonalEdgeStyle;align=left;verticalAlign=top;rounded=0;exitX=0.543;exitY=1.15;exitDx=0;exitDy=0;exitPerimeter=0;entryX=0.25;entryY=0;entryDx=0;entryDy=0;" edge="1" parent="WIyWlLk6GJQsqaUBKTNV-1" source="oP3Ork68nBSGmn3EAQ2I-17" target="oP3Ork68nBSGmn3EAQ2I-18">
          <mxGeometry x="-1" relative="1" as="geometry">
            <mxPoint x="170" y="20" as="sourcePoint" />
            <mxPoint x="330" y="20" as="targetPoint" />
          </mxGeometry>
        </mxCell>
        <mxCell id="oP3Ork68nBSGmn3EAQ2I-41" value="1" style="edgeLabel;resizable=0;html=1;align=left;verticalAlign=bottom;" connectable="0" vertex="1" parent="oP3Ork68nBSGmn3EAQ2I-40">
          <mxGeometry x="-1" relative="1" as="geometry" />
        </mxCell>
        <mxCell id="oP3Ork68nBSGmn3EAQ2I-44" value="name" style="endArrow=block;endFill=1;html=1;edgeStyle=orthogonalEdgeStyle;align=left;verticalAlign=top;rounded=0;" edge="1" parent="WIyWlLk6GJQsqaUBKTNV-1">
          <mxGeometry x="-1" relative="1" as="geometry">
            <mxPoint x="100" y="70" as="sourcePoint" />
            <mxPoint x="260" y="70" as="targetPoint" />
          </mxGeometry>
        </mxCell>
        <mxCell id="oP3Ork68nBSGmn3EAQ2I-45" value="1" style="edgeLabel;resizable=0;html=1;align=left;verticalAlign=bottom;" connectable="0" vertex="1" parent="oP3Ork68nBSGmn3EAQ2I-44">
          <mxGeometry x="-1" relative="1" as="geometry" />
        </mxCell>
      </root>
    </mxGraphModel>
  </diagram>
</mxfile>
